<svg width="166" height="37" viewBox="0 0 166 37" fill="none" xmlns="http://www.w3.org/2000/svg">
<g clip-path="url(#clip0_77_1852)">
<path d="M30.0233 30.4877V19.1179L32.1006 20.1128C32.7784 20.4374 33.5919 20.2103 34.0035 19.5815C34.4152 18.9528 34.298 18.1164 33.7293 17.625L28.529 13.1312C28.3887 13.01 28.2272 12.9158 28.0526 12.8535L27.2669 12.5729C27.264 11.1882 26.988 9.50252 26.1594 7.98282C25.0045 5.86477 22.8433 4.21163 19.359 4.10796C17.6472 4.05702 16.204 4.41335 15.0253 5.10393C13.8489 5.79316 13.024 6.76364 12.4648 7.80497C11.7064 9.21746 11.4143 10.7962 11.3685 12.1529C11.1425 12.2091 10.931 12.3176 10.7519 12.4718L5.65996 16.856C5.04401 17.3863 4.96252 18.3108 5.47619 18.9407L8.80079 23.0176L9.49317 27.1203C9.54006 27.3982 9.66426 27.6572 9.85155 27.8677L13.7518 32.2519C14.056 32.5939 14.4997 32.7783 14.9567 32.7526L28.6075 31.9853C29.4019 31.9407 30.0233 31.2834 30.0233 30.4877Z" fill="black" stroke="white" stroke-width="3" stroke-linejoin="round"/>
<path d="M15.1512 16.7178L12.332 14.1953V26.4366L14.7061 30.888L28.357 29.9977L28.9505 17.2371L26.2797 15.6791L15.1512 16.7178Z" fill="white"/>
<path fill-rule="evenodd" clip-rule="evenodd" d="M17.4048 12.8905C13.5427 13.179 11.6411 13.3331 11.5241 13.3671C11.1526 13.4751 10.8765 13.7533 10.7567 14.1401C10.7029 14.3138 10.6992 14.7271 10.6992 20.549V26.7722L10.7761 27.0198C10.9323 27.5233 10.9566 27.5589 12.6277 29.727C14.2745 31.8636 14.273 31.8622 14.9111 31.9414C15.2462 31.9829 28.1157 31.2167 28.4445 31.1357C28.9918 31.0007 29.2835 30.7009 29.3668 30.1881C29.4188 29.8675 29.4152 16.4385 29.363 16.2305C29.2979 15.9706 28.4056 15.2993 25.0388 12.9767C24.1249 12.3462 24.6165 12.3518 17.4048 12.8905ZM23.9683 13.6359C24.4567 13.7548 26.8481 15.4545 26.7147 15.5879C26.6862 15.6163 16.3333 16.2472 15.3849 16.2783C14.4182 16.31 14.5057 16.3496 13.1387 15.2602C11.9163 14.286 11.3819 14.4335 17.8343 13.9643C20.7011 13.7558 23.106 13.5795 23.1787 13.5726C23.3803 13.5533 23.7507 13.583 23.9683 13.6359ZM27.8442 16.9845C27.9108 17.0251 27.982 17.1124 28.0258 17.2072L28.0978 17.3631L28.1066 23.1241C28.1173 30.0913 28.156 29.6362 27.5428 29.7569C27.2297 29.8185 15.3395 30.4863 15.1625 30.4522C14.8454 30.3911 14.702 30.2796 14.6165 30.0275C14.5883 29.9444 14.5784 28.38 14.5784 24.0011V18.0869L14.6527 17.9396C14.8104 17.6268 14.2268 17.6866 21.0719 17.2823C27.8336 16.8829 27.688 16.8893 27.8442 16.9845ZM24.7303 19.0674C23.2806 19.1514 23.1102 19.2041 22.9983 19.6036C22.9162 19.897 22.9176 19.8981 23.4525 19.959C23.7121 19.9886 23.9313 20.0196 23.9397 20.028C23.9481 20.0364 23.9511 21.2002 23.9464 22.6144L23.938 25.1855L23.214 24.0805C22.8158 23.4728 21.956 22.1585 21.3034 21.1598C20.6507 20.1611 20.1137 19.3404 20.11 19.336C20.0916 19.3139 17.1878 19.5314 17.0949 19.5619C16.8583 19.6394 16.6763 19.8805 16.6368 20.1688C16.6065 20.3898 16.6332 20.4057 17.08 20.4317C17.293 20.4441 17.4932 20.4618 17.5249 20.4709C17.5795 20.4865 17.5827 20.6931 17.5827 24.2119V27.9364L17.2144 28.0389C16.7429 28.1701 16.6253 28.2791 16.6253 28.585C16.6253 28.7462 16.5422 28.7424 18.0977 28.6517C19.8945 28.5469 20.0688 28.4965 20.1897 28.0476C20.2365 27.8739 20.313 27.9133 19.6296 27.7597L19.0519 27.6299L19.0434 24.846C19.0381 23.075 19.0465 22.0661 19.0667 22.0731C19.0939 22.0826 20.5161 24.2986 22.231 27.0033C23.3162 28.7149 23.7208 28.9032 25.018 28.3005L25.3081 28.1658V23.9942C25.3081 21.6999 25.3139 19.8227 25.321 19.8227C25.3874 19.8227 25.9864 19.6833 26.0374 19.656C26.1616 19.5896 26.2322 19.4257 26.2324 19.2037L26.2325 18.9973L26.0096 19.0018C25.8871 19.0042 25.3114 19.0337 24.7303 19.0674Z" fill="black"/>
<path d="M23.9683 13.6359C24.4567 13.7548 26.8481 15.4545 26.7147 15.5879C26.6862 15.6163 16.3333 16.2472 15.3849 16.2783C14.4182 16.31 14.5057 16.3496 13.1387 15.2602C11.9163 14.286 11.3819 14.4335 17.8343 13.9643C20.7011 13.7558 23.106 13.5795 23.1787 13.5726C23.3803 13.5533 23.7507 13.583 23.9683 13.6359Z" fill="black"/>
<path d="M9.88349 21.8369L14.78 17.0145L11.3673 14.2695L6.61914 18.0532L9.88349 21.8369Z" fill="white"/>
<path fill-rule="evenodd" clip-rule="evenodd" d="M11.369 13.4143L15.7825 16.9643L10.3517 22.3127C10.2201 22.4423 10.0407 22.5116 9.85613 22.5041C9.67156 22.4966 9.49834 22.413 9.37767 22.2732L6.11332 18.4895C5.99469 18.352 5.93719 18.1721 5.95406 17.9913C5.97094 17.8104 6.06074 17.6443 6.20276 17.5311L11.369 13.4143ZM7.57797 18.1428L9.92288 20.8608L13.777 17.065L11.3651 15.125L7.57797 18.1428Z" fill="black"/>
<path fill-rule="evenodd" clip-rule="evenodd" d="M23.5506 12.8933C23.3814 13.1821 23.4521 13.5516 23.716 13.7574L27.4255 16.6508L28.0596 15.8379L28.7424 16.4002L28.2713 17.3109L32.5743 19.5366C32.8776 19.6935 33.2504 19.5962 33.4385 19.3112C33.6265 19.0261 33.5691 18.6452 33.3056 18.4281L28.2607 14.2735C28.2105 14.2322 28.1546 14.1984 28.0947 14.1733L24.3853 12.6153C24.0767 12.4857 23.7198 12.6046 23.5506 12.8933Z" fill="black"/>
<path d="M26.2024 13.0184C25.5914 16.7771 22.049 19.3288 18.2903 18.7178C14.5316 18.1068 11.9799 14.5644 12.5909 10.8057C13.2019 7.04703 16.7443 4.49533 20.503 5.10635C24.2617 5.71737 26.8134 9.25972 26.2024 13.0184Z" fill="white"/>
<path fill-rule="evenodd" clip-rule="evenodd" d="M18.5284 17.2532C21.4782 17.7328 24.2583 15.7302 24.7378 12.7803C25.2173 9.8305 23.2147 7.05044 20.2649 6.57092C17.3151 6.09139 14.535 8.09397 14.0555 11.0438C13.576 13.9936 15.5785 16.7737 18.5284 17.2532ZM18.2903 18.7178C22.049 19.3288 25.5914 16.7771 26.2024 13.0184C26.8134 9.25972 24.2617 5.71737 20.503 5.10635C16.7443 4.49533 13.2019 7.04703 12.5909 10.8057C11.9799 14.5644 14.5316 18.1068 18.2903 18.7178Z" fill="#0061FF"/>
<path d="M17.7195 11.9187C17.6339 12.4449 17.138 12.8022 16.6118 12.7166C16.0856 12.6311 15.7283 12.1351 15.8139 11.6089C15.8994 11.0827 16.3953 10.7255 16.9216 10.811C17.4478 10.8966 17.805 11.3925 17.7195 11.9187Z" fill="#0061FF"/>
<path d="M22.0867 9.97425C22.0011 10.5005 21.5052 10.8577 20.979 10.7722C20.4527 10.6866 20.0955 10.1907 20.181 9.66447C20.2666 9.13825 20.7625 8.78102 21.2887 8.86656C21.815 8.9521 22.1722 9.44803 22.0867 9.97425Z" fill="#0061FF"/>
<path fill-rule="evenodd" clip-rule="evenodd" d="M22.9755 11.5413C23.3853 11.5453 23.7142 11.8806 23.7102 12.2904C23.6958 13.7598 22.7361 15.0517 21.4818 15.7255C20.2011 16.4134 18.5275 16.5081 17.0304 15.4922C16.6913 15.2622 16.603 14.8008 16.833 14.4618C17.0631 14.1227 17.5245 14.0344 17.8635 14.2644C18.8504 14.9341 19.9263 14.8767 20.7797 14.4183C21.6594 13.9457 22.2184 13.0972 22.2264 12.2759C22.2304 11.8661 22.5658 11.5372 22.9755 11.5413Z" fill="#0061FF"/>
<path d="M15.1512 16.7178L12.332 14.1953V26.4366L14.7061 30.888L28.357 29.9977L28.9505 17.2371L26.2797 15.6791L15.1512 16.7178Z" fill="white"/>
<path fill-rule="evenodd" clip-rule="evenodd" d="M15.3849 16.2783C16.3333 16.2472 26.6862 15.6163 26.7147 15.5879L29.363 16.2305C29.4152 16.4385 29.4188 29.8675 29.3668 30.1881C29.2835 30.7009 28.9918 31.0007 28.4445 31.1357C28.1157 31.2167 15.2462 31.9829 14.9111 31.9414L14.9099 31.9412C14.7694 31.9238 14.6598 31.9102 14.5568 31.8767C14.1933 31.7583 13.9107 31.3917 12.631 29.7314L12.6277 29.727C10.9566 27.5589 10.9323 27.5233 10.7761 27.0198L10.6992 26.7722V20.549C10.6992 14.7271 10.7029 14.3138 10.7567 14.1401C10.8765 13.7533 11.1526 13.4751 11.5241 13.3671L12.4682 14.474C12.4133 14.5021 12.3849 14.5328 12.379 14.5674C12.3612 14.6713 12.5458 14.8099 12.8187 15.0147C12.9159 15.0876 13.0243 15.169 13.1387 15.2602C13.1882 15.2997 13.2358 15.3376 13.2816 15.3742C14.0203 15.9635 14.294 16.1818 14.6022 16.2555C14.7836 16.2989 14.9769 16.2923 15.284 16.2817C15.3163 16.2806 15.3499 16.2795 15.3849 16.2783ZM27.8442 16.9845C27.9108 17.0251 27.982 17.1124 28.0258 17.2072L28.0978 17.3631L28.1066 23.1241C28.1073 23.5462 28.108 23.941 28.1087 24.3103C28.1173 28.8454 28.1186 29.5424 27.8329 29.6923C27.781 29.7195 27.7197 29.7287 27.6472 29.7395C27.6147 29.7444 27.5799 29.7496 27.5428 29.7569C27.2297 29.8185 15.3395 30.4863 15.1625 30.4522C14.8454 30.3911 14.702 30.2796 14.6165 30.0275C14.5883 29.9444 14.5784 28.38 14.5784 24.0011V18.0869L14.6527 17.9396C14.6649 17.9154 14.6727 17.8934 14.6798 17.8733C14.6863 17.8549 14.6922 17.8381 14.7005 17.8225C14.7914 17.6515 15.1631 17.6296 19.6122 17.3682C20.0568 17.3421 20.5421 17.3136 21.0719 17.2823L21.4807 17.2581C27.5007 16.9025 27.6881 16.8914 27.8219 16.9708C27.8292 16.9751 27.8363 16.9797 27.8442 16.9845ZM24.7303 19.0674C23.2806 19.1514 23.1102 19.2041 22.9983 19.6036C22.9162 19.897 22.9176 19.8981 23.4525 19.959C23.7121 19.9886 23.9313 20.0196 23.9397 20.028C23.9481 20.0364 23.9511 21.2002 23.9464 22.6144L23.938 25.1855L23.214 24.0805C22.8158 23.4728 21.956 22.1585 21.3034 21.1598C20.6507 20.1611 20.1137 19.3404 20.11 19.336C20.0916 19.3139 17.1878 19.5314 17.0949 19.5619C16.8583 19.6394 16.6763 19.8805 16.6368 20.1688C16.6065 20.3898 16.6332 20.4057 17.08 20.4317C17.293 20.4441 17.4932 20.4618 17.5249 20.4709C17.5795 20.4865 17.5827 20.6931 17.5827 24.2119V27.9364L17.2144 28.0389C16.7429 28.1701 16.6253 28.2791 16.6253 28.585C16.6253 28.5932 16.6251 28.601 16.6249 28.6083C16.6242 28.6327 16.6237 28.6525 16.6315 28.6681C16.6654 28.7357 16.8562 28.7245 17.8729 28.6648C17.9437 28.6607 18.0186 28.6563 18.0977 28.6517C19.8945 28.5469 20.0688 28.4965 20.1897 28.0476C20.1948 28.0287 20.2002 28.0124 20.205 27.998C20.2151 27.9675 20.2223 27.946 20.2167 27.9285C20.2035 27.8867 20.1177 27.8677 19.8266 27.8035C19.7692 27.7908 19.7039 27.7764 19.6296 27.7597L19.0519 27.6299L19.0434 24.846C19.0381 23.075 19.0465 22.0661 19.0667 22.0731C19.0939 22.0826 20.5161 24.2986 22.231 27.0033C23.3162 28.7149 23.7208 28.9032 25.018 28.3005L25.3081 28.1658V23.9942C25.3081 21.6999 25.3139 19.8227 25.321 19.8227C25.3874 19.8227 25.9864 19.6833 26.0374 19.656C26.1616 19.5896 26.2322 19.4257 26.2324 19.2037L26.2325 18.9973L26.0096 19.0018C25.8871 19.0042 25.3114 19.0337 24.7303 19.0674Z" fill="black"/>
<path d="M9.88349 21.8369L14.78 17.0145L11.3673 14.2695L6.61914 18.0532L9.88349 21.8369Z" fill="white"/>
<path fill-rule="evenodd" clip-rule="evenodd" d="M11.369 13.4142L15.7825 16.9642L10.3517 22.3126C10.2201 22.4422 10.0407 22.5115 9.85613 22.504C9.67156 22.4965 9.49834 22.4129 9.37767 22.273L6.11332 18.4894C5.99469 18.3519 5.93719 18.172 5.95406 17.9911C5.97094 17.8103 6.06074 17.6442 6.20276 17.531L11.369 13.4142ZM7.57797 18.1427L9.92288 20.8607L13.777 17.0649L11.3651 15.1248L7.57797 18.1427Z" fill="black"/>
<path fill-rule="evenodd" clip-rule="evenodd" d="M27.5512 14.1851C27.3176 14.2954 27.1685 14.5305 27.1685 14.7889V16.1243H28.4074L28.7424 16.4002L28.2713 17.3109L32.5743 19.5366C32.8776 19.6935 33.2504 19.5963 33.4385 19.3112C33.6265 19.0262 33.5691 18.6452 33.3056 18.4281L28.2607 14.2735C28.0612 14.1093 27.7849 14.0748 27.5512 14.1851Z" fill="black"/>
<path d="M42.361 26H48.612V25.544C46.769 25.544 46.503 25.202 46.503 24.043V19.255C47.054 19.464 47.681 19.616 48.517 19.597C51.215 19.578 53.286 18.096 53.286 15.094C53.286 12.149 51.272 10.8 47.947 10.8H42.361V11.256C44.128 11.256 44.375 11.598 44.375 12.757V24.043C44.375 25.202 44.128 25.544 42.361 25.544V26ZM48.156 18.742C47.472 18.742 46.94 18.59 46.503 18.419V12.301C46.503 12.054 46.617 11.883 46.845 11.788C47.187 11.655 47.567 11.579 48.042 11.579C49.866 11.579 51.158 12.738 51.158 15.094C51.158 17.222 50.151 18.742 48.156 18.742ZM60.0352 21.934C59.5792 24.233 58.5912 24.898 57.7362 24.898C56.1592 24.898 55.3612 23.074 55.3612 20.49V20.452H60.3772C60.3772 17.678 59.3322 15.588 57.1092 15.588C54.8482 15.588 53.5182 18.134 53.5182 21.136C53.5182 24.271 54.8672 26.304 57.0142 26.304C58.8002 26.304 60.0922 24.993 60.4912 21.934H60.0352ZM57.1092 16.386C58.2302 16.386 58.5532 17.849 58.5532 19.673H55.3802C55.4942 17.773 55.9692 16.386 57.1092 16.386ZM65.8785 26.304C68.4435 26.304 69.9635 23.948 69.9635 20.889C69.9635 17.773 68.3295 15.588 65.8785 15.588C63.2945 15.588 61.7935 17.944 61.7935 21.003C61.7935 24.119 63.4085 26.304 65.8785 26.304ZM66.1635 25.468C64.4915 25.468 63.6935 22.466 63.6935 19.882C63.6935 18.21 64.2445 16.424 65.5935 16.424C67.2655 16.424 68.0445 19.426 68.0445 22.01C68.0445 23.682 67.5125 25.468 66.1635 25.468ZM76.3953 15.588C75.3313 15.588 74.4573 16.291 73.7163 17.507H73.6403V15.835L73.3363 15.55L70.4863 16.671L70.6573 17.108C71.7973 16.652 71.7973 16.918 71.7973 18.191V28.223C71.7973 29.458 71.6263 29.724 70.4673 29.724V30.18H74.9893V29.724C73.8303 29.724 73.6403 29.458 73.6403 28.223V24.86H73.6783C74.1913 25.772 75.0653 26.228 75.9583 26.228C78.0293 26.228 79.2263 23.701 79.2263 20.585C79.2263 17.659 78.3143 15.588 76.3953 15.588ZM75.4833 25.316C74.4763 25.316 73.6403 24.005 73.6403 21.877V18.419C74.1343 17.583 74.8373 16.899 75.6163 16.899C76.7183 16.899 77.2313 18.324 77.2313 20.87C77.2313 23.188 76.7753 25.316 75.4833 25.316ZM83.1267 10.61L82.8417 10.344L79.9537 11.75L80.1437 12.168C81.2837 11.598 81.2837 11.845 81.2837 13.061V24.043C81.2837 25.259 81.0937 25.544 79.9347 25.544V26H84.4567V25.544C83.2977 25.544 83.1267 25.259 83.1267 24.043V10.61ZM91.6523 21.934C91.1963 24.233 90.2083 24.898 89.3533 24.898C87.7763 24.898 86.9783 23.074 86.9783 20.49V20.452H91.9943C91.9943 17.678 90.9493 15.588 88.7263 15.588C86.4653 15.588 85.1353 18.134 85.1353 21.136C85.1353 24.271 86.4843 26.304 88.6313 26.304C90.4173 26.304 91.7093 24.993 92.1083 21.934H91.6523ZM88.7263 16.386C89.8473 16.386 90.1703 17.849 90.1703 19.673H86.9973C87.1113 17.773 87.5863 16.386 88.7263 16.386ZM122.67 10.8H117.825V11.256C119.592 11.256 119.839 11.598 119.839 12.757V22.675L112.505 10.8H109.028V11.256C109.845 11.256 110.358 11.427 111.004 12.472L111.023 12.51V24.043C111.023 25.202 110.776 25.544 109.009 25.544V26H113.93V25.544C112.087 25.544 111.821 25.202 111.821 24.043V13.783L119.573 26.19H120.637V12.757C120.637 11.598 120.903 11.256 122.67 11.256V10.8ZM126.738 26.304C129.303 26.304 130.823 23.948 130.823 20.889C130.823 17.773 129.189 15.588 126.738 15.588C124.154 15.588 122.653 17.944 122.653 21.003C122.653 24.119 124.268 26.304 126.738 26.304ZM127.023 25.468C125.351 25.468 124.553 22.466 124.553 19.882C124.553 18.21 125.104 16.424 126.453 16.424C128.125 16.424 128.904 19.426 128.904 22.01C128.904 23.682 128.372 25.468 127.023 25.468ZM136.893 21.744C136.893 24.005 136.475 25.069 135.62 25.069C134.727 25.069 134.556 23.948 134.556 22.257V16.709H136.798V15.93H134.518V13.156H133.834C133.644 14.942 132.77 15.968 131.383 16.006V16.709H132.713V22.751C132.713 25.411 133.492 26.304 134.974 26.304C136.836 26.304 137.425 24.708 137.425 21.744H136.893ZM140.16 13.726C140.863 13.726 141.376 13.232 141.376 12.567C141.376 11.883 140.863 11.389 140.16 11.389C139.438 11.389 138.925 11.883 138.925 12.567C138.925 13.232 139.438 13.726 140.16 13.726ZM141.224 15.835L140.901 15.55L138.108 16.671L138.279 17.108C139.381 16.652 139.4 16.918 139.4 18.191V24.043C139.4 25.259 139.21 25.544 138.051 25.544V26H142.573V25.544C141.414 25.544 141.224 25.259 141.224 24.043V15.835ZM147.482 26.304C150.047 26.304 151.567 23.948 151.567 20.889C151.567 17.773 149.933 15.588 147.482 15.588C144.898 15.588 143.397 17.944 143.397 21.003C143.397 24.119 145.012 26.304 147.482 26.304ZM147.767 25.468C146.095 25.468 145.297 22.466 145.297 19.882C145.297 18.21 145.848 16.424 147.197 16.424C148.869 16.424 149.648 19.426 149.648 22.01C149.648 23.682 149.116 25.468 147.767 25.468ZM152.431 26H156.725V25.544C155.718 25.544 155.566 25.259 155.566 24.043V18.381C156.288 17.45 156.972 16.918 157.751 16.918C158.473 16.918 158.872 17.412 158.872 18.457V24.043C158.872 25.259 158.72 25.544 157.713 25.544V26H161.969V25.544C160.886 25.544 160.715 25.259 160.715 24.043V18.343C160.715 16.557 159.974 15.588 158.625 15.588C157.333 15.588 156.478 16.405 155.623 17.583H155.566V15.835L155.205 15.55L153.913 16.082L152.393 16.69L152.583 17.127C153.723 16.652 153.723 16.918 153.723 18.191V24.043C153.723 25.259 153.533 25.544 152.431 25.544V26Z" fill="white"/>
<path d="M98.4475 21.744C98.4475 24.005 98.0295 25.069 97.1745 25.069C96.2815 25.069 96.1105 23.948 96.1105 22.257V16.709H98.3525V15.93H96.0725V13.156H95.3885C95.1985 14.942 94.3245 15.968 92.9375 16.006V16.709H94.2675V22.751C94.2675 25.411 95.0465 26.304 96.5285 26.304C98.3905 26.304 98.9795 24.708 98.9795 21.744H98.4475ZM103.971 26.304C106.536 26.304 108.056 23.948 108.056 20.889C108.056 17.773 106.422 15.588 103.971 15.588C101.387 15.588 99.8863 17.944 99.8863 21.003C99.8863 24.119 101.501 26.304 103.971 26.304ZM104.256 25.468C102.584 25.468 101.786 22.466 101.786 19.882C101.786 18.21 102.337 16.424 103.686 16.424C105.358 16.424 106.137 19.426 106.137 22.01C106.137 23.682 105.605 25.468 104.256 25.468Z" fill="white" fill-opacity="0.4"/>
</g>
<defs>
<clipPath id="clip0_77_1852">
<rect width="166" height="37" fill="white"/>
</clipPath>
</defs>
</svg>
